<svg xmlns="http://www.w3.org/2000/svg" width="1440" height="760" viewBox="0 0 1440 760"><rect width="1440" height="760" fill="#0A1120"></rect><circle cx="622.5" cy="339.7" r="0.80" fill="#93C5FD" opacity="0.37"></circle><circle cx="1284.5" cy="661.3" r="0.88" fill="#93C5FD" opacity="0.40"></circle><circle cx="272.0" cy="258.6" r="1.26" fill="#93C5FD" opacity="0.35"></circle><circle cx="1319.1" cy="156.9" r="1.18" fill="#93C5FD" opacity="0.59"></circle><circle cx="703.7" cy="175.6" r="1.17" fill="#93C5FD" opacity="0.41"></circle><circle cx="963.1" cy="611.4" r="1.66" fill="#93C5FD" opacity="0.50"></circle><circle cx="264.3" cy="252.8" r="0.93" fill="#93C5FD" opacity="0.34"></circle><circle cx="612.4" cy="295.4" r="1.70" fill="#93C5FD" opacity="0.47"></circle><circle cx="452.7" cy="657.2" r="1.69" fill="#93C5FD" opacity="0.58"></circle><circle cx="184.0" cy="358.3" r="0.48" fill="#93C5FD" opacity="0.23"></circle><circle cx="564.6" cy="596.9" r="0.79" fill="#93C5FD" opacity="0.29"></circle><circle cx="1212.3" cy="26.7" r="0.43" fill="#93C5FD" opacity="0.24"></circle><circle cx="866.9" cy="571.4" r="0.78" fill="#93C5FD" opacity="0.67"></circle><circle cx="1297.7" cy="738.0" r="0.76" fill="#93C5FD" opacity="0.30"></circle><circle cx="124.4" cy="576.6" r="1.55" fill="#93C5FD" opacity="0.54"></circle><circle cx="455.4" cy="170.5" r="1.06" fill="#93C5FD" opacity="0.57"></circle><circle cx="545.8" cy="123.0" r="1.18" fill="#93C5FD" opacity="0.38"></circle><circle cx="802.1" cy="691.1" r="0.90" fill="#93C5FD" opacity="0.39"></circle><circle cx="484.5" cy="149.7" r="1.38" fill="#93C5FD" opacity="0.60"></circle><circle cx="1347.5" cy="350.9" r="0.47" fill="#93C5FD" opacity="0.52"></circle><circle cx="979.2" cy="21.2" r="1.39" fill="#93C5FD" opacity="0.50"></circle><circle cx="735.8" cy="643.7" r="0.71" fill="#93C5FD" opacity="0.48"></circle><circle cx="671.7" cy="477.2" r="1.67" fill="#93C5FD" opacity="0.19"></circle><circle cx="586.6" cy="563.3" r="1.25" fill="#93C5FD" opacity="0.58"></circle><circle cx="944.1" cy="633.1" r="1.06" fill="#93C5FD" opacity="0.61"></circle><circle cx="83.3" cy="149.8" r="0.74" fill="#93C5FD" opacity="0.51"></circle><circle cx="1052.8" cy="309.6" r="1.75" fill="#93C5FD" opacity="0.33"></circle><circle cx="613.1" cy="82.1" r="0.86" fill="#93C5FD" opacity="0.46"></circle><circle cx="616.3" cy="51.4" r="0.66" fill="#E3B341" opacity="0.62"></circle><circle cx="888.2" cy="683.8" r="1.03" fill="#93C5FD" opacity="0.44"></circle><circle cx="569.3" cy="112.2" r="0.81" fill="#93C5FD" opacity="0.51"></circle><circle cx="877.7" cy="32.0" r="1.55" fill="#93C5FD" opacity="0.53"></circle><circle cx="1197.9" cy="457.0" r="1.48" fill="#93C5FD" opacity="0.58"></circle><circle cx="509.6" cy="405.1" r="1.48" fill="#93C5FD" opacity="0.62"></circle><circle cx="839.3" cy="552.4" r="1.32" fill="#93C5FD" opacity="0.53"></circle><circle cx="1045.0" cy="584.7" r="0.68" fill="#93C5FD" opacity="0.49"></circle><circle cx="1007.1" cy="578.1" r="1.10" fill="#93C5FD" opacity="0.66"></circle><circle cx="165.3" cy="575.2" r="1.61" fill="#E3B341" opacity="0.27"></circle><circle cx="211.9" cy="471.0" r="1.19" fill="#93C5FD" opacity="0.60"></circle><circle cx="828.0" cy="93.5" r="1.57" fill="#93C5FD" opacity="0.35"></circle><circle cx="1304.3" cy="612.5" r="1.20" fill="#93C5FD" opacity="0.40"></circle><circle cx="931.4" cy="102.8" r="1.16" fill="#93C5FD" opacity="0.57"></circle><circle cx="960.5" cy="593.1" r="1.25" fill="#93C5FD" opacity="0.26"></circle><circle cx="253.0" cy="329.3" r="0.97" fill="#93C5FD" opacity="0.29"></circle><circle cx="900.6" cy="431.4" r="0.74" fill="#E3B341" opacity="0.23"></circle><circle cx="891.6" cy="441.2" r="1.63" fill="#93C5FD" opacity="0.42"></circle><circle cx="446.7" cy="67.6" r="1.62" fill="#93C5FD" opacity="0.50"></circle><circle cx="193.0" cy="15.0" r="0.83" fill="#93C5FD" opacity="0.19"></circle><circle cx="603.9" cy="148.1" r="1.11" fill="#93C5FD" opacity="0.36"></circle><circle cx="114.9" cy="86.0" r="0.72" fill="#E3B341" opacity="0.21"></circle><circle cx="807.5" cy="515.2" r="1.01" fill="#93C5FD" opacity="0.56"></circle><circle cx="619.7" cy="219.1" r="0.57" fill="#93C5FD" opacity="0.65"></circle><circle cx="145.6" cy="387.4" r="0.94" fill="#93C5FD" opacity="0.46"></circle><circle cx="994.6" cy="415.0" r="0.76" fill="#93C5FD" opacity="0.57"></circle><circle cx="858.9" cy="696.0" r="0.95" fill="#E3B341" opacity="0.59"></circle><circle cx="1248.9" cy="505.0" r="0.45" fill="#93C5FD" opacity="0.52"></circle><circle cx="1074.0" cy="465.7" r="1.36" fill="#93C5FD" opacity="0.40"></circle><circle cx="609.5" cy="299.3" r="0.98" fill="#93C5FD" opacity="0.18"></circle><circle cx="68.0" cy="393.4" r="0.56" fill="#93C5FD" opacity="0.58"></circle><circle cx="736.9" cy="585.5" r="0.61" fill="#93C5FD" opacity="0.51"></circle><circle cx="415.5" cy="392.2" r="0.63" fill="#93C5FD" opacity="0.68"></circle><circle cx="706.3" cy="325.4" r="0.69" fill="#93C5FD" opacity="0.35"></circle><circle cx="133.9" cy="352.9" r="1.17" fill="#93C5FD" opacity="0.55"></circle><circle cx="423.2" cy="305.9" r="0.64" fill="#93C5FD" opacity="0.60"></circle><circle cx="757.3" cy="325.3" r="0.76" fill="#93C5FD" opacity="0.48"></circle><circle cx="1038.5" cy="408.4" r="0.61" fill="#93C5FD" opacity="0.27"></circle><circle cx="251.5" cy="595.3" r="0.54" fill="#93C5FD" opacity="0.22"></circle><circle cx="1116.3" cy="470.5" r="0.72" fill="#93C5FD" opacity="0.60"></circle><circle cx="539.7" cy="146.2" r="0.86" fill="#93C5FD" opacity="0.42"></circle><circle cx="108.3" cy="133.6" r="1.71" fill="#93C5FD" opacity="0.52"></circle><circle cx="476.5" cy="149.5" r="0.50" fill="#E3B341" opacity="0.31"></circle><circle cx="1159.5" cy="689.5" r="1.55" fill="#93C5FD" opacity="0.20"></circle><circle cx="561.8" cy="575.5" r="1.63" fill="#93C5FD" opacity="0.52"></circle><circle cx="1075.2" cy="45.6" r="0.61" fill="#93C5FD" opacity="0.46"></circle><circle cx="251.3" cy="729.8" r="1.60" fill="#93C5FD" opacity="0.64"></circle><circle cx="421.8" cy="739.9" r="1.47" fill="#93C5FD" opacity="0.27"></circle><circle cx="659.1" cy="602.7" r="1.06" fill="#93C5FD" opacity="0.46"></circle><circle cx="683.6" cy="177.8" r="1.03" fill="#93C5FD" opacity="0.52"></circle><circle cx="866.8" cy="36.7" r="1.70" fill="#93C5FD" opacity="0.38"></circle><circle cx="539.7" cy="698.8" r="1.15" fill="#93C5FD" opacity="0.23"></circle><circle cx="163.2" cy="755.1" r="0.43" fill="#93C5FD" opacity="0.35"></circle><circle cx="792.7" cy="435.5" r="0.87" fill="#93C5FD" opacity="0.57"></circle><circle cx="1313.5" cy="153.2" r="1.06" fill="#93C5FD" opacity="0.50"></circle><circle cx="1390.8" cy="135.3" r="1.15" fill="#93C5FD" opacity="0.57"></circle><circle cx="759.9" cy="513.1" r="0.98" fill="#93C5FD" opacity="0.27"></circle><circle cx="1018.7" cy="490.3" r="0.61" fill="#93C5FD" opacity="0.41"></circle><circle cx="331.1" cy="432.2" r="0.44" fill="#93C5FD" opacity="0.27"></circle><circle cx="683.2" cy="94.5" r="0.77" fill="#93C5FD" opacity="0.46"></circle><circle cx="1320.6" cy="585.3" r="0.78" fill="#93C5FD" opacity="0.33"></circle><circle cx="1230.0" cy="544.5" r="1.59" fill="#93C5FD" opacity="0.27"></circle><circle cx="371.1" cy="290.4" r="1.43" fill="#93C5FD" opacity="0.43"></circle><circle cx="583.6" cy="606.2" r="0.57" fill="#93C5FD" opacity="0.64"></circle><circle cx="819.8" cy="526.9" r="1.71" fill="#93C5FD" opacity="0.27"></circle><circle cx="182.6" cy="590.4" r="1.32" fill="#93C5FD" opacity="0.40"></circle><circle cx="1197.6" cy="591.5" r="0.51" fill="#93C5FD" opacity="0.36"></circle><circle cx="1195.5" cy="288.3" r="0.77" fill="#93C5FD" opacity="0.50"></circle><circle cx="581.2" cy="77.1" r="0.95" fill="#93C5FD" opacity="0.62"></circle><circle cx="272.3" cy="375.1" r="1.33" fill="#E3B341" opacity="0.54"></circle><circle cx="891.0" cy="594.8" r="1.29" fill="#93C5FD" opacity="0.42"></circle><circle cx="473.4" cy="171.4" r="0.70" fill="#93C5FD" opacity="0.36"></circle><circle cx="647.4" cy="154.1" r="1.76" fill="#93C5FD" opacity="0.32"></circle><circle cx="123.7" cy="152.0" r="1.65" fill="#93C5FD" opacity="0.38"></circle><circle cx="555.2" cy="741.6" r="1.27" fill="#93C5FD" opacity="0.60"></circle><circle cx="405.5" cy="331.2" r="1.06" fill="#93C5FD" opacity="0.24"></circle><circle cx="126.5" cy="406.5" r="1.68" fill="#E3B341" opacity="0.51"></circle><circle cx="693.2" cy="97.9" r="1.40" fill="#93C5FD" opacity="0.36"></circle><circle cx="844.3" cy="417.4" r="0.95" fill="#93C5FD" opacity="0.35"></circle><circle cx="349.8" cy="83.2" r="1.20" fill="#93C5FD" opacity="0.57"></circle><circle cx="1134.7" cy="367.1" r="1.44" fill="#E3B341" opacity="0.31"></circle><circle cx="13.9" cy="147.1" r="1.19" fill="#93C5FD" opacity="0.35"></circle><circle cx="559.4" cy="449.7" r="1.49" fill="#93C5FD" opacity="0.53"></circle><circle cx="449.1" cy="138.6" r="1.79" fill="#93C5FD" opacity="0.54"></circle><circle cx="502.7" cy="173.4" r="1.28" fill="#E3B341" opacity="0.20"></circle><circle cx="219.3" cy="473.8" r="0.62" fill="#93C5FD" opacity="0.23"></circle><circle cx="1126.4" cy="356.4" r="1.31" fill="#93C5FD" opacity="0.32"></circle><circle cx="1239.4" cy="48.3" r="1.25" fill="#93C5FD" opacity="0.52"></circle><circle cx="992.5" cy="602.2" r="0.76" fill="#93C5FD" opacity="0.62"></circle><circle cx="2.3" cy="597.4" r="1.64" fill="#93C5FD" opacity="0.18"></circle><circle cx="432.3" cy="609.7" r="1.69" fill="#93C5FD" opacity="0.22"></circle><circle cx="1239.4" cy="469.3" r="0.74" fill="#93C5FD" opacity="0.51"></circle><circle cx="1115.7" cy="597.5" r="1.03" fill="#93C5FD" opacity="0.56"></circle><circle cx="899.3" cy="452.5" r="1.68" fill="#93C5FD" opacity="0.32"></circle><circle cx="723.8" cy="190.4" r="1.11" fill="#93C5FD" opacity="0.45"></circle><circle cx="928.3" cy="691.4" r="0.52" fill="#93C5FD" opacity="0.20"></circle><circle cx="522.6" cy="646.7" r="1.01" fill="#93C5FD" opacity="0.40"></circle><circle cx="213.1" cy="120.3" r="0.56" fill="#93C5FD" opacity="0.62"></circle><circle cx="262.9" cy="114.7" r="0.85" fill="#93C5FD" opacity="0.56"></circle><circle cx="503.0" cy="262.1" r="1.15" fill="#93C5FD" opacity="0.23"></circle><circle cx="34.9" cy="143.7" r="1.22" fill="#93C5FD" opacity="0.35"></circle><circle cx="758.6" cy="9.5" r="1.25" fill="#93C5FD" opacity="0.37"></circle><circle cx="1260.0" cy="483.4" r="0.95" fill="#93C5FD" opacity="0.56"></circle><circle cx="204.0" cy="376.7" r="1.23" fill="#93C5FD" opacity="0.38"></circle><circle cx="1366.6" cy="368.9" r="1.01" fill="#93C5FD" opacity="0.66"></circle><circle cx="442.9" cy="492.0" r="1.51" fill="#93C5FD" opacity="0.65"></circle><circle cx="1389.1" cy="396.2" r="1.14" fill="#93C5FD" opacity="0.18"></circle><circle cx="506.7" cy="367.7" r="1.29" fill="#93C5FD" opacity="0.39"></circle><circle cx="478.6" cy="648.9" r="0.66" fill="#93C5FD" opacity="0.31"></circle><circle cx="600.5" cy="544.3" r="0.54" fill="#93C5FD" opacity="0.50"></circle><circle cx="1325.1" cy="279.7" r="0.80" fill="#93C5FD" opacity="0.42"></circle><circle cx="740.0" cy="307.3" r="1.24" fill="#93C5FD" opacity="0.37"></circle><circle cx="357.0" cy="448.7" r="1.50" fill="#93C5FD" opacity="0.51"></circle><circle cx="1017.9" cy="307.1" r="1.71" fill="#93C5FD" opacity="0.54"></circle><circle cx="457.3" cy="177.3" r="0.82" fill="#93C5FD" opacity="0.27"></circle><circle cx="644.6" cy="371.2" r="1.51" fill="#E3B341" opacity="0.64"></circle><circle cx="338.4" cy="117.3" r="0.92" fill="#E3B341" opacity="0.63"></circle><circle cx="320.0" cy="262.5" r="1.06" fill="#93C5FD" opacity="0.63"></circle><circle cx="110.9" cy="520.4" r="1.03" fill="#93C5FD" opacity="0.28"></circle><circle cx="1090.7" cy="448.6" r="0.79" fill="#93C5FD" opacity="0.29"></circle><circle cx="1219.5" cy="155.0" r="1.71" fill="#93C5FD" opacity="0.42"></circle><circle cx="411.8" cy="101.7" r="0.40" fill="#93C5FD" opacity="0.21"></circle><circle cx="1438.9" cy="660.0" r="1.78" fill="#93C5FD" opacity="0.23"></circle><circle cx="616.8" cy="730.7" r="0.75" fill="#93C5FD" opacity="0.24"></circle><circle cx="539.8" cy="730.4" r="1.41" fill="#93C5FD" opacity="0.64"></circle><circle cx="1172.6" cy="754.9" r="1.01" fill="#93C5FD" opacity="0.54"></circle><circle cx="264.2" cy="25.8" r="0.54" fill="#93C5FD" opacity="0.52"></circle><circle cx="226.8" cy="293.8" r="1.60" fill="#93C5FD" opacity="0.51"></circle><circle cx="1374.1" cy="556.1" r="0.57" fill="#93C5FD" opacity="0.58"></circle><circle cx="583.1" cy="627.2" r="0.94" fill="#93C5FD" opacity="0.67"></circle><circle cx="650.9" cy="607.9" r="0.87" fill="#93C5FD" opacity="0.62"></circle><circle cx="1328.3" cy="585.3" r="1.05" fill="#93C5FD" opacity="0.55"></circle><line x1="180" y1="520" x2="360" y2="360" stroke="#3B82F6" stroke-width="1.2" opacity="0.4"></line><line x1="360" y1="360" x2="520" y2="470" stroke="#3B82F6" stroke-width="1.2" opacity="0.4"></line><line x1="520" y1="470" x2="700" y2="300" stroke="#3B82F6" stroke-width="1.2" opacity="0.4"></line><line x1="700" y1="300" x2="880" y2="420" stroke="#3B82F6" stroke-width="1.2" opacity="0.4"></line><line x1="880" y1="420" x2="1080" y2="250" stroke="#3B82F6" stroke-width="1.2" opacity="0.4"></line><line x1="1080" y1="250" x2="1280" y2="380" stroke="#E3B341" stroke-width="1.2" opacity="0.5"></line><line x1="520" y1="470" x2="880" y2="420" stroke="#3B82F6" stroke-width="1.2" opacity="0.4"></line><circle cx="180" cy="520" r="10.4" fill="#93C5FD" opacity="0.12"></circle><circle cx="180" cy="520" r="4" fill="#93C5FD"></circle><circle cx="360" cy="360" r="9.1" fill="#C4B5FD" opacity="0.12"></circle><circle cx="360" cy="360" r="3.5" fill="#C4B5FD"></circle><circle cx="520" cy="470" r="9.1" fill="#93C5FD" opacity="0.12"></circle><circle cx="520" cy="470" r="3.5" fill="#93C5FD"></circle><circle cx="700" cy="300" r="9.1" fill="#67E8F9" opacity="0.12"></circle><circle cx="700" cy="300" r="3.5" fill="#67E8F9"></circle><circle cx="880" cy="420" r="9.1" fill="#93C5FD" opacity="0.12"></circle><circle cx="880" cy="420" r="3.5" fill="#93C5FD"></circle><circle cx="1080" cy="250" r="9.1" fill="#93C5FD" opacity="0.12"></circle><circle cx="1080" cy="250" r="3.5" fill="#93C5FD"></circle><circle cx="1280" cy="380" r="15.600000000000001" fill="#E3B341" opacity="0.12"></circle><circle cx="1280" cy="380" r="6" fill="#E3B341"></circle></svg>