<svg xmlns="http://www.w3.org/2000/svg" width="1600" height="900" viewBox="0 0 1600 900"><rect width="1600" height="900" fill="#0A1120"></rect><circle cx="18.7" cy="55.8" r="1.77" fill="#93C5FD" opacity="0.53"></circle><circle cx="648.8" cy="419.6" r="0.74" fill="#93C5FD" opacity="0.46"></circle><circle cx="412.5" cy="140.4" r="1.47" fill="#93C5FD" opacity="0.44"></circle><circle cx="588.7" cy="263.9" r="1.15" fill="#E3B341" opacity="0.33"></circle><circle cx="396.1" cy="790.0" r="0.67" fill="#93C5FD" opacity="0.25"></circle><circle cx="465.5" cy="493.1" r="1.47" fill="#E3B341" opacity="0.22"></circle><circle cx="885.9" cy="559.5" r="1.35" fill="#93C5FD" opacity="0.66"></circle><circle cx="1473.9" cy="744.9" r="0.46" fill="#93C5FD" opacity="0.27"></circle><circle cx="680.5" cy="18.2" r="0.52" fill="#93C5FD" opacity="0.56"></circle><circle cx="682.7" cy="421.8" r="1.72" fill="#93C5FD" opacity="0.53"></circle><circle cx="529.0" cy="320.7" r="0.59" fill="#E3B341" opacity="0.25"></circle><circle cx="515.9" cy="171.3" r="1.29" fill="#93C5FD" opacity="0.35"></circle><circle cx="1094.8" cy="829.2" r="1.17" fill="#93C5FD" opacity="0.59"></circle><circle cx="1471.8" cy="105.3" r="1.14" fill="#93C5FD" opacity="0.50"></circle><circle cx="1536.8" cy="754.2" r="1.23" fill="#E3B341" opacity="0.66"></circle><circle cx="877.7" cy="736.7" r="0.41" fill="#93C5FD" opacity="0.44"></circle><circle cx="1158.8" cy="494.5" r="1.46" fill="#93C5FD" opacity="0.67"></circle><circle cx="1317.1" cy="387.0" r="1.30" fill="#93C5FD" opacity="0.55"></circle><circle cx="499.8" cy="213.2" r="0.41" fill="#E3B341" opacity="0.19"></circle><circle cx="1333.4" cy="567.5" r="0.42" fill="#93C5FD" opacity="0.49"></circle><circle cx="1147.0" cy="895.4" r="0.79" fill="#93C5FD" opacity="0.67"></circle><circle cx="1287.9" cy="562.0" r="1.56" fill="#E3B341" opacity="0.25"></circle><circle cx="811.1" cy="510.2" r="0.63" fill="#93C5FD" opacity="0.38"></circle><circle cx="1301.7" cy="775.4" r="1.43" fill="#E3B341" opacity="0.51"></circle><circle cx="974.9" cy="662.8" r="1.74" fill="#93C5FD" opacity="0.42"></circle><circle cx="934.4" cy="716.1" r="1.60" fill="#93C5FD" opacity="0.27"></circle><circle cx="764.3" cy="473.1" r="0.65" fill="#93C5FD" opacity="0.31"></circle><circle cx="764.0" cy="153.8" r="0.40" fill="#93C5FD" opacity="0.27"></circle><circle cx="171.6" cy="788.7" r="1.78" fill="#93C5FD" opacity="0.21"></circle><circle cx="648.1" cy="449.1" r="1.43" fill="#93C5FD" opacity="0.36"></circle><circle cx="1266.4" cy="639.7" r="1.52" fill="#93C5FD" opacity="0.44"></circle><circle cx="659.5" cy="506.4" r="0.81" fill="#93C5FD" opacity="0.44"></circle><circle cx="128.0" cy="227.0" r="1.56" fill="#93C5FD" opacity="0.59"></circle><circle cx="687.7" cy="321.2" r="1.69" fill="#93C5FD" opacity="0.31"></circle><circle cx="763.1" cy="747.3" r="0.97" fill="#93C5FD" opacity="0.67"></circle><circle cx="698.1" cy="304.7" r="1.15" fill="#93C5FD" opacity="0.33"></circle><circle cx="915.6" cy="887.4" r="1.58" fill="#93C5FD" opacity="0.43"></circle><circle cx="1116.3" cy="838.0" r="1.17" fill="#93C5FD" opacity="0.51"></circle><circle cx="1109.3" cy="351.7" r="1.25" fill="#93C5FD" opacity="0.61"></circle><circle cx="472.6" cy="81.5" r="1.36" fill="#E3B341" opacity="0.55"></circle><circle cx="507.9" cy="233.7" r="0.49" fill="#E3B341" opacity="0.54"></circle><circle cx="1254.7" cy="745.9" r="1.75" fill="#E3B341" opacity="0.29"></circle><circle cx="452.1" cy="484.6" r="0.95" fill="#93C5FD" opacity="0.54"></circle><circle cx="998.0" cy="653.0" r="1.27" fill="#93C5FD" opacity="0.48"></circle><circle cx="1331.1" cy="434.3" r="0.60" fill="#93C5FD" opacity="0.54"></circle><circle cx="895.3" cy="496.2" r="1.64" fill="#93C5FD" opacity="0.66"></circle><circle cx="162.8" cy="258.2" r="1.13" fill="#E3B341" opacity="0.38"></circle><circle cx="1371.6" cy="477.1" r="1.67" fill="#93C5FD" opacity="0.32"></circle><circle cx="1481.5" cy="608.3" r="1.51" fill="#E3B341" opacity="0.35"></circle><circle cx="1551.4" cy="758.5" r="0.40" fill="#93C5FD" opacity="0.26"></circle><circle cx="167.3" cy="74.3" r="1.68" fill="#93C5FD" opacity="0.32"></circle><circle cx="419.5" cy="714.5" r="1.41" fill="#93C5FD" opacity="0.21"></circle><circle cx="1567.2" cy="74.1" r="0.52" fill="#93C5FD" opacity="0.37"></circle><circle cx="1106.1" cy="244.8" r="1.10" fill="#93C5FD" opacity="0.23"></circle><circle cx="699.4" cy="489.8" r="0.64" fill="#93C5FD" opacity="0.57"></circle><circle cx="1107.0" cy="749.2" r="0.45" fill="#93C5FD" opacity="0.27"></circle><circle cx="1428.7" cy="253.7" r="1.58" fill="#93C5FD" opacity="0.50"></circle><circle cx="151.6" cy="96.1" r="1.78" fill="#93C5FD" opacity="0.53"></circle><circle cx="828.7" cy="63.7" r="1.12" fill="#93C5FD" opacity="0.39"></circle><circle cx="259.6" cy="667.0" r="0.64" fill="#93C5FD" opacity="0.30"></circle><circle cx="1408.6" cy="27.7" r="0.45" fill="#E3B341" opacity="0.65"></circle><circle cx="774.0" cy="518.1" r="1.39" fill="#93C5FD" opacity="0.27"></circle><circle cx="119.2" cy="535.7" r="1.41" fill="#93C5FD" opacity="0.60"></circle><circle cx="912.3" cy="333.4" r="0.48" fill="#93C5FD" opacity="0.64"></circle><circle cx="248.4" cy="255.2" r="0.89" fill="#93C5FD" opacity="0.58"></circle><circle cx="1385.7" cy="696.2" r="1.39" fill="#93C5FD" opacity="0.61"></circle><circle cx="1123.3" cy="619.2" r="0.83" fill="#93C5FD" opacity="0.38"></circle><circle cx="523.8" cy="217.6" r="1.10" fill="#93C5FD" opacity="0.48"></circle><circle cx="682.4" cy="640.1" r="0.74" fill="#93C5FD" opacity="0.55"></circle><circle cx="704.2" cy="352.5" r="1.54" fill="#93C5FD" opacity="0.24"></circle><circle cx="864.4" cy="593.5" r="1.28" fill="#93C5FD" opacity="0.22"></circle><circle cx="1512.4" cy="641.1" r="1.12" fill="#93C5FD" opacity="0.53"></circle><circle cx="1561.0" cy="56.7" r="1.47" fill="#93C5FD" opacity="0.40"></circle><circle cx="787.5" cy="202.9" r="1.60" fill="#93C5FD" opacity="0.68"></circle><circle cx="1511.6" cy="149.8" r="1.07" fill="#93C5FD" opacity="0.27"></circle><circle cx="1122.3" cy="686.3" r="0.70" fill="#93C5FD" opacity="0.18"></circle><circle cx="1063.9" cy="280.8" r="1.15" fill="#93C5FD" opacity="0.65"></circle><circle cx="881.8" cy="625.6" r="0.82" fill="#93C5FD" opacity="0.23"></circle><circle cx="190.5" cy="492.1" r="1.03" fill="#93C5FD" opacity="0.52"></circle><circle cx="1186.0" cy="517.5" r="1.49" fill="#93C5FD" opacity="0.44"></circle><circle cx="981.9" cy="553.5" r="1.24" fill="#93C5FD" opacity="0.52"></circle><circle cx="1155.4" cy="788.9" r="1.60" fill="#93C5FD" opacity="0.52"></circle><circle cx="240.3" cy="229.5" r="1.79" fill="#E3B341" opacity="0.28"></circle><circle cx="60.4" cy="672.4" r="1.13" fill="#93C5FD" opacity="0.59"></circle><circle cx="292.9" cy="294.5" r="1.38" fill="#93C5FD" opacity="0.50"></circle><circle cx="172.5" cy="280.2" r="1.71" fill="#93C5FD" opacity="0.23"></circle><circle cx="405.1" cy="659.6" r="0.40" fill="#93C5FD" opacity="0.54"></circle><circle cx="1562.1" cy="457.0" r="1.76" fill="#93C5FD" opacity="0.48"></circle><circle cx="1232.3" cy="247.4" r="0.91" fill="#93C5FD" opacity="0.51"></circle><circle cx="863.3" cy="664.7" r="0.93" fill="#93C5FD" opacity="0.49"></circle><circle cx="101.7" cy="358.8" r="0.72" fill="#93C5FD" opacity="0.56"></circle><circle cx="518.6" cy="87.8" r="0.87" fill="#93C5FD" opacity="0.65"></circle><circle cx="934.1" cy="656.8" r="1.61" fill="#93C5FD" opacity="0.19"></circle><circle cx="331.6" cy="371.7" r="1.05" fill="#93C5FD" opacity="0.26"></circle><circle cx="591.4" cy="8.1" r="0.41" fill="#93C5FD" opacity="0.50"></circle><circle cx="481.9" cy="38.7" r="1.01" fill="#93C5FD" opacity="0.57"></circle><circle cx="866.5" cy="647.0" r="1.78" fill="#93C5FD" opacity="0.66"></circle><circle cx="1384.6" cy="735.1" r="1.52" fill="#93C5FD" opacity="0.65"></circle><circle cx="1129.3" cy="288.8" r="0.82" fill="#93C5FD" opacity="0.58"></circle><circle cx="1219.3" cy="55.5" r="1.21" fill="#93C5FD" opacity="0.47"></circle><circle cx="733.9" cy="596.7" r="1.67" fill="#93C5FD" opacity="0.33"></circle><circle cx="920.2" cy="432.5" r="0.46" fill="#93C5FD" opacity="0.21"></circle><circle cx="292.9" cy="609.6" r="1.43" fill="#93C5FD" opacity="0.58"></circle><circle cx="1249.6" cy="453.1" r="1.70" fill="#93C5FD" opacity="0.64"></circle><circle cx="1512.9" cy="831.6" r="0.87" fill="#93C5FD" opacity="0.63"></circle><circle cx="792.1" cy="359.6" r="0.79" fill="#E3B341" opacity="0.43"></circle><circle cx="1173.2" cy="310.2" r="1.47" fill="#93C5FD" opacity="0.55"></circle><circle cx="1154.0" cy="558.3" r="1.55" fill="#93C5FD" opacity="0.22"></circle><circle cx="1468.7" cy="160.9" r="0.97" fill="#93C5FD" opacity="0.55"></circle><circle cx="817.4" cy="382.6" r="1.72" fill="#93C5FD" opacity="0.68"></circle><circle cx="1052.6" cy="211.5" r="1.20" fill="#93C5FD" opacity="0.42"></circle><circle cx="652.9" cy="610.2" r="1.25" fill="#93C5FD" opacity="0.60"></circle><circle cx="309.2" cy="774.7" r="0.50" fill="#93C5FD" opacity="0.59"></circle><circle cx="1026.9" cy="311.3" r="1.53" fill="#93C5FD" opacity="0.29"></circle><circle cx="748.1" cy="546.9" r="0.54" fill="#93C5FD" opacity="0.67"></circle><circle cx="1000.1" cy="462.2" r="0.64" fill="#E3B341" opacity="0.58"></circle><circle cx="1076.0" cy="29.1" r="0.66" fill="#93C5FD" opacity="0.47"></circle><circle cx="488.0" cy="391.4" r="0.64" fill="#93C5FD" opacity="0.23"></circle><circle cx="1101.4" cy="852.5" r="1.32" fill="#93C5FD" opacity="0.51"></circle><circle cx="564.7" cy="77.8" r="0.85" fill="#93C5FD" opacity="0.47"></circle><circle cx="1431.9" cy="66.8" r="0.76" fill="#93C5FD" opacity="0.22"></circle><circle cx="1136.8" cy="840.0" r="0.52" fill="#E3B341" opacity="0.56"></circle><circle cx="719.6" cy="793.4" r="1.57" fill="#93C5FD" opacity="0.41"></circle><circle cx="387.8" cy="728.2" r="0.60" fill="#93C5FD" opacity="0.36"></circle><circle cx="1084.3" cy="369.6" r="1.11" fill="#93C5FD" opacity="0.57"></circle><circle cx="1063.0" cy="259.7" r="0.66" fill="#93C5FD" opacity="0.65"></circle><circle cx="592.0" cy="445.6" r="1.27" fill="#93C5FD" opacity="0.60"></circle><circle cx="88.4" cy="235.8" r="1.64" fill="#E3B341" opacity="0.59"></circle><circle cx="1262.0" cy="409.8" r="0.86" fill="#93C5FD" opacity="0.37"></circle><circle cx="759.4" cy="175.1" r="0.56" fill="#93C5FD" opacity="0.35"></circle><circle cx="415.9" cy="570.3" r="1.72" fill="#93C5FD" opacity="0.68"></circle><circle cx="1481.4" cy="752.3" r="1.39" fill="#93C5FD" opacity="0.62"></circle><circle cx="1257.5" cy="825.5" r="1.56" fill="#93C5FD" opacity="0.35"></circle><circle cx="651.4" cy="53.5" r="0.43" fill="#93C5FD" opacity="0.57"></circle><circle cx="345.0" cy="387.4" r="0.74" fill="#93C5FD" opacity="0.65"></circle><circle cx="566.6" cy="883.4" r="0.85" fill="#93C5FD" opacity="0.31"></circle><circle cx="802.0" cy="858.6" r="1.54" fill="#93C5FD" opacity="0.20"></circle><circle cx="1525.3" cy="717.7" r="0.42" fill="#93C5FD" opacity="0.41"></circle><circle cx="816.6" cy="51.9" r="0.62" fill="#93C5FD" opacity="0.60"></circle><circle cx="232.6" cy="502.1" r="1.64" fill="#93C5FD" opacity="0.40"></circle><circle cx="1481.9" cy="311.1" r="0.41" fill="#93C5FD" opacity="0.20"></circle><circle cx="1527.1" cy="779.3" r="1.07" fill="#93C5FD" opacity="0.44"></circle><circle cx="1227.4" cy="357.3" r="0.50" fill="#93C5FD" opacity="0.52"></circle><circle cx="226.7" cy="441.0" r="1.19" fill="#93C5FD" opacity="0.18"></circle><circle cx="1579.8" cy="519.3" r="1.50" fill="#93C5FD" opacity="0.62"></circle><circle cx="679.1" cy="764.8" r="1.04" fill="#93C5FD" opacity="0.56"></circle><circle cx="138.2" cy="743.3" r="0.60" fill="#93C5FD" opacity="0.24"></circle><circle cx="371.9" cy="726.7" r="0.43" fill="#93C5FD" opacity="0.45"></circle><circle cx="896.3" cy="100.3" r="0.51" fill="#93C5FD" opacity="0.20"></circle><circle cx="427.2" cy="247.5" r="1.33" fill="#93C5FD" opacity="0.47"></circle><circle cx="748.8" cy="351.6" r="0.64" fill="#93C5FD" opacity="0.64"></circle><circle cx="1230.4" cy="423.2" r="1.33" fill="#93C5FD" opacity="0.61"></circle><circle cx="504.2" cy="683.4" r="1.21" fill="#E3B341" opacity="0.51"></circle><circle cx="1273.3" cy="564.0" r="0.92" fill="#93C5FD" opacity="0.18"></circle><circle cx="1419.8" cy="736.7" r="0.78" fill="#93C5FD" opacity="0.48"></circle><circle cx="415.3" cy="322.0" r="0.98" fill="#E3B341" opacity="0.65"></circle><circle cx="879.9" cy="673.2" r="0.92" fill="#93C5FD" opacity="0.46"></circle><circle cx="283.0" cy="611.8" r="0.89" fill="#93C5FD" opacity="0.46"></circle><circle cx="304.2" cy="657.0" r="0.45" fill="#93C5FD" opacity="0.67"></circle><circle cx="602.8" cy="525.4" r="1.44" fill="#93C5FD" opacity="0.38"></circle><circle cx="719.1" cy="177.9" r="0.90" fill="#93C5FD" opacity="0.40"></circle><circle cx="316.9" cy="533.3" r="1.39" fill="#93C5FD" opacity="0.35"></circle><circle cx="1233.3" cy="847.7" r="0.60" fill="#93C5FD" opacity="0.46"></circle><circle cx="1201.2" cy="151.7" r="1.57" fill="#E3B341" opacity="0.37"></circle><circle cx="746.9" cy="528.8" r="0.85" fill="#93C5FD" opacity="0.43"></circle><circle cx="879.4" cy="798.8" r="0.58" fill="#93C5FD" opacity="0.24"></circle><circle cx="205.2" cy="66.5" r="0.94" fill="#93C5FD" opacity="0.18"></circle><circle cx="1512.0" cy="548.3" r="1.78" fill="#93C5FD" opacity="0.21"></circle><circle cx="457.8" cy="797.9" r="1.43" fill="#93C5FD" opacity="0.21"></circle><circle cx="1586.3" cy="682.9" r="1.42" fill="#93C5FD" opacity="0.58"></circle><circle cx="1478.8" cy="590.0" r="1.00" fill="#93C5FD" opacity="0.48"></circle><circle cx="1028.0" cy="103.1" r="1.73" fill="#E3B341" opacity="0.62"></circle><circle cx="447.8" cy="619.2" r="1.68" fill="#93C5FD" opacity="0.40"></circle><circle cx="688.7" cy="436.9" r="1.24" fill="#93C5FD" opacity="0.36"></circle><circle cx="1486.9" cy="145.5" r="1.19" fill="#93C5FD" opacity="0.22"></circle><circle cx="856.3" cy="494.9" r="1.77" fill="#93C5FD" opacity="0.57"></circle><circle cx="1106.7" cy="407.0" r="1.49" fill="#93C5FD" opacity="0.62"></circle><circle cx="256.4" cy="249.2" r="1.63" fill="#93C5FD" opacity="0.46"></circle><circle cx="1526.0" cy="422.1" r="0.85" fill="#93C5FD" opacity="0.40"></circle><circle cx="7.7" cy="431.9" r="1.27" fill="#93C5FD" opacity="0.27"></circle><circle cx="901.3" cy="77.0" r="1.17" fill="#93C5FD" opacity="0.45"></circle><circle cx="283.0" cy="544.2" r="1.44" fill="#93C5FD" opacity="0.31"></circle><circle cx="1145.2" cy="88.8" r="0.92" fill="#93C5FD" opacity="0.31"></circle><circle cx="1413.8" cy="480.6" r="1.12" fill="#93C5FD" opacity="0.27"></circle><circle cx="1280.6" cy="281.4" r="1.74" fill="#93C5FD" opacity="0.47"></circle><circle cx="880.6" cy="803.3" r="1.69" fill="#93C5FD" opacity="0.68"></circle><circle cx="164.6" cy="347.3" r="1.44" fill="#93C5FD" opacity="0.58"></circle><circle cx="74.1" cy="729.0" r="0.79" fill="#93C5FD" opacity="0.26"></circle><circle cx="209.5" cy="768.7" r="0.84" fill="#93C5FD" opacity="0.48"></circle><circle cx="1095.7" cy="659.5" r="0.72" fill="#93C5FD" opacity="0.39"></circle><circle cx="1421.1" cy="272.3" r="0.89" fill="#93C5FD" opacity="0.51"></circle><circle cx="929.1" cy="824.0" r="0.87" fill="#93C5FD" opacity="0.47"></circle><circle cx="1212.7" cy="236.6" r="0.66" fill="#93C5FD" opacity="0.26"></circle><circle cx="1099.4" cy="472.8" r="1.13" fill="#93C5FD" opacity="0.29"></circle><circle cx="1292.8" cy="401.1" r="0.68" fill="#93C5FD" opacity="0.35"></circle><circle cx="1141.6" cy="107.9" r="1.18" fill="#93C5FD" opacity="0.66"></circle><circle cx="937.2" cy="840.8" r="1.25" fill="#93C5FD" opacity="0.63"></circle><circle cx="166.3" cy="18.6" r="1.69" fill="#93C5FD" opacity="0.51"></circle><circle cx="1568.8" cy="129.0" r="1.75" fill="#E3B341" opacity="0.64"></circle><circle cx="236.5" cy="81.5" r="1.01" fill="#93C5FD" opacity="0.56"></circle><circle cx="889.5" cy="435.6" r="1.14" fill="#93C5FD" opacity="0.50"></circle><circle cx="1191.0" cy="665.1" r="1.15" fill="#93C5FD" opacity="0.38"></circle><circle cx="1569.3" cy="461.7" r="0.56" fill="#E3B341" opacity="0.61"></circle><circle cx="437.3" cy="338.1" r="0.51" fill="#93C5FD" opacity="0.43"></circle><circle cx="329.9" cy="574.5" r="0.97" fill="#93C5FD" opacity="0.67"></circle><circle cx="1069.4" cy="835.4" r="0.52" fill="#93C5FD" opacity="0.44"></circle><circle cx="80.9" cy="811.0" r="0.51" fill="#93C5FD" opacity="0.53"></circle><circle cx="991.9" cy="52.1" r="1.72" fill="#93C5FD" opacity="0.38"></circle><circle cx="497.7" cy="528.6" r="0.73" fill="#93C5FD" opacity="0.28"></circle><circle cx="194.1" cy="696.2" r="1.61" fill="#93C5FD" opacity="0.35"></circle><circle cx="1401.9" cy="656.0" r="0.73" fill="#93C5FD" opacity="0.50"></circle><circle cx="143.7" cy="474.6" r="0.78" fill="#93C5FD" opacity="0.28"></circle><circle cx="1246.3" cy="202.7" r="1.47" fill="#93C5FD" opacity="0.28"></circle><circle cx="519.2" cy="656.2" r="1.18" fill="#93C5FD" opacity="0.60"></circle><circle cx="689.3" cy="396.4" r="0.68" fill="#93C5FD" opacity="0.62"></circle><circle cx="1194.0" cy="490.6" r="0.44" fill="#93C5FD" opacity="0.66"></circle><circle cx="485.8" cy="565.7" r="1.51" fill="#93C5FD" opacity="0.34"></circle><circle cx="289.6" cy="434.1" r="1.68" fill="#93C5FD" opacity="0.63"></circle><circle cx="893.8" cy="554.7" r="1.03" fill="#93C5FD" opacity="0.36"></circle><circle cx="1336.2" cy="524.2" r="1.68" fill="#93C5FD" opacity="0.54"></circle><circle cx="980.4" cy="115.5" r="1.42" fill="#E3B341" opacity="0.58"></circle><circle cx="1266.1" cy="673.2" r="1.22" fill="#E3B341" opacity="0.26"></circle><circle cx="997.1" cy="438.2" r="1.45" fill="#93C5FD" opacity="0.26"></circle><circle cx="535.8" cy="213.2" r="1.24" fill="#93C5FD" opacity="0.54"></circle><circle cx="1067.6" cy="434.9" r="1.04" fill="#93C5FD" opacity="0.19"></circle><circle cx="251.6" cy="12.4" r="0.60" fill="#93C5FD" opacity="0.46"></circle><circle cx="185.7" cy="463.5" r="1.19" fill="#93C5FD" opacity="0.45"></circle><circle cx="453.6" cy="163.8" r="1.52" fill="#93C5FD" opacity="0.35"></circle><circle cx="41.6" cy="361.1" r="0.99" fill="#93C5FD" opacity="0.61"></circle><circle cx="1486.7" cy="469.9" r="1.23" fill="#93C5FD" opacity="0.38"></circle><circle cx="341.1" cy="367.8" r="1.24" fill="#93C5FD" opacity="0.21"></circle><circle cx="975.1" cy="563.1" r="0.70" fill="#93C5FD" opacity="0.19"></circle><circle cx="762.4" cy="126.4" r="1.55" fill="#93C5FD" opacity="0.47"></circle><circle cx="99.5" cy="94.7" r="0.62" fill="#93C5FD" opacity="0.24"></circle><circle cx="1177.9" cy="820.4" r="0.60" fill="#93C5FD" opacity="0.24"></circle><circle cx="77.2" cy="693.8" r="1.02" fill="#93C5FD" opacity="0.40"></circle><circle cx="255.9" cy="352.2" r="1.08" fill="#93C5FD" opacity="0.31"></circle><circle cx="671.5" cy="649.0" r="1.31" fill="#93C5FD" opacity="0.40"></circle><circle cx="412.8" cy="648.5" r="1.09" fill="#93C5FD" opacity="0.41"></circle><circle cx="1118.7" cy="149.5" r="1.21" fill="#93C5FD" opacity="0.54"></circle><circle cx="1068.8" cy="127.8" r="1.15" fill="#93C5FD" opacity="0.65"></circle><circle cx="266.7" cy="584.1" r="0.84" fill="#93C5FD" opacity="0.54"></circle><circle cx="718.2" cy="578.9" r="0.50" fill="#93C5FD" opacity="0.40"></circle><circle cx="301.5" cy="482.9" r="0.66" fill="#E3B341" opacity="0.19"></circle><circle cx="1382.8" cy="167.1" r="1.43" fill="#93C5FD" opacity="0.55"></circle><circle cx="443.7" cy="492.7" r="0.83" fill="#E3B341" opacity="0.63"></circle><circle cx="72.7" cy="388.6" r="0.91" fill="#93C5FD" opacity="0.32"></circle><circle cx="194.3" cy="432.9" r="1.71" fill="#93C5FD" opacity="0.19"></circle><circle cx="862.1" cy="340.2" r="0.81" fill="#93C5FD" opacity="0.57"></circle><circle cx="389.8" cy="776.5" r="0.64" fill="#93C5FD" opacity="0.36"></circle><circle cx="346.2" cy="673.1" r="0.80" fill="#E3B341" opacity="0.64"></circle><circle cx="1452.0" cy="407.5" r="0.73" fill="#93C5FD" opacity="0.49"></circle><circle cx="815.6" cy="882.0" r="0.56" fill="#93C5FD" opacity="0.47"></circle><circle cx="148.1" cy="505.2" r="0.82" fill="#93C5FD" opacity="0.25"></circle><circle cx="1327.7" cy="368.7" r="1.33" fill="#93C5FD" opacity="0.67"></circle><circle cx="149.9" cy="650.2" r="1.05" fill="#E3B341" opacity="0.60"></circle><circle cx="463.9" cy="797.9" r="1.19" fill="#E3B341" opacity="0.54"></circle><circle cx="506.3" cy="47.6" r="1.36" fill="#93C5FD" opacity="0.57"></circle><circle cx="1586.8" cy="184.4" r="0.46" fill="#93C5FD" opacity="0.20"></circle><circle cx="1139.6" cy="298.7" r="1.23" fill="#93C5FD" opacity="0.25"></circle></svg>